# xmcd
#
# Track frame offsets:
#       150
#       16678
#       31768
#       44338
#       58728
#       74020
#       89498
#       108849
#       118400
#       133547
#       146917
#       166822
#       178373
#       191715
#       208737
#       223893
#       237697
#       253111
#       255842
#       268921
#       283464
#       294245
#       304318
#       320474
#
# Disc length: 4499 seconds
#
# Revision: 1
# Processed by: cddbd v1.4PL0 Copyright (c) Steve Scherf et al.
# Submitted via: MusiCat 1.0
#
DISCID=87119118
DTITLE=Corb Lund Band - Unforgiving Mistress/Five Dollar Bill
DYEAR=1900
DGENRE=
TTITLE0=Mora Blackberry
TTITLE1=The Case Of The Wine Soaked Preacher
TTITLE2=Remains Of You
TTITLE3=Guitar From The Wall
TTITLE4=Where Is My Soldier
TTITLE5=Spanish Armada
TTITLE6=I've Been Needin'
TTITLE7=Young And Jaded
TTITLE8=Engine Revver
TTITLE9=We Used To Ride 'Em
TTITLE10=The Oldest Rhythm
TTITLE11=Five Dollar Bill
TTITLE12=Expectation And The Blues
TTITLE13=Short Native Grasses (Prairies Of Alberta)
TTITLE14=No Roads Here
TTITLE15=Apocaplyptic Modified Blues
TTITLE16=Heavy And Leaving
TTITLE17=Intro  Jack Of Diamonds
TTITLE18=Time To Switch To Whiskey
TTITLE19=Roughest Neck Around
TTITLE20=Daughter Don't You Marry No Guitar Picker
TTITLE21=(Gonna) Shine Up My Boots
TTITLE22=Buckin' Horse Rider
TTITLE23=She Won't Come To Me
EXTD=0\n\n\n
EXTT0=
EXTT1=
EXTT2=
EXTT3=
EXTT4=
EXTT5=
EXTT6=
EXTT7=
EXTT8=
EXTT9=
EXTT10=
EXTT11=
EXTT12=
EXTT13=
EXTT14=
EXTT15=
EXTT16=
EXTT17=
EXTT18=
EXTT19=
EXTT20=
EXTT21=
EXTT22=
EXTT23=
PLAYORDER=
